<?xml version="1.0" encoding="UTF-8"?>
<svg width="1165px" height="662px" viewBox="0 0 1165 662" version="1.1" xmlns="http://www.w3.org/2000/svg" xmlns:xlink="http://www.w3.org/1999/xlink">
    <!-- Generator: Sketch 47.1 (45422) - http://www.bohemiancoding.com/sketch -->
    <title>DEVstack final logo</title>
    <desc>Created with Sketch.</desc>
    <defs></defs>
    <g id="Page-1" stroke="none" stroke-width="1" fill="none" fill-rule="evenodd">
        <g id="DEVstack-final-logo">
            <path d="M158.6309,661.959 C152.3559,659.623 145.6359,659.715 139.1519,658.48 C122.5469,655.314 109.2049,647.578 98.2489,634.377 C83.5209,616.631 75.7409,596.799 74.1989,573.85 C72.1369,543.148 72.0679,512.422 71.4759,481.691 C71.0479,459.545 70.2639,437.414 66.8839,415.457 C61.8529,382.776 37.8949,361.114 4.6239,359.575 C1.2779,359.42 0.1479,358.781 0.1979,355.177 C0.4179,339.105 0.3379,323.026 0.2489,306.952 C0.2339,304.383 0.5439,303.213 3.6669,303.031 C40.0919,300.908 63.5579,278.337 67.7929,242.079 C71.3669,211.475 71.3959,180.749 71.8809,150.018 C72.2699,125.381 72.6409,100.74 76.1329,76.254 C79.6819,51.369 93.1059,32.218 111.3599,16.321 C121.7809,7.246 135.5429,5.29 148.9009,3.424 C159.5799,1.932 170.3379,1.594 181.1019,1.402 C187.3509,1.022 193.5999,0.674 199.8369,1.587 C199.8879,18.28 199.8799,34.974 200.0479,51.667 C200.0759,54.436 199.0859,55.04 196.5389,54.999 C186.5559,54.836 176.5859,54.955 166.6859,56.637 C143.8889,60.512 135.8109,68.869 132.3969,91.993 C130.8199,102.674 130.3069,113.397 130.2699,124.171 C130.1819,149.915 130.7149,175.665 129.5949,201.397 C128.7599,220.58 126.6429,239.575 122.3639,258.36 C114.6499,292.236 94.3269,315.37 63.1149,329.572 C61.7179,330.208 60.3589,330.926 58.5689,331.808 C68.3139,335.972 77.2429,340.689 85.3899,346.803 C106.1399,362.377 117.4119,383.687 122.9869,408.518 C129.1119,435.791 130.0289,463.516 130.2619,491.293 C130.4339,511.891 130.3609,532.488 130.5759,553.084 C130.6619,561.357 131.7789,569.572 133.5399,577.656 C137.5279,595.975 145.8829,603.58 164.8519,606.691 C175.3679,608.416 185.9529,608.754 196.5669,608.518 C199.1539,608.459 200.0729,609.145 200.0469,611.877 C199.8859,628.568 199.8959,645.264 199.8479,661.959 L172.6829,661.959 C170.4969,661.186 168.3119,661.186 166.1259,661.959 L158.6309,661.959 Z" id="Fill-1" fill="#0AA4FE"></path>
            <path d="M964.2256,661.959 C964.2736,645.729 964.4666,629.498 964.2686,613.273 C964.2196,609.262 965.4576,608.363 969.2446,608.482 C980.7966,608.84 992.2856,608.186 1003.6726,605.807 C1018.8176,602.643 1027.6426,593.619 1030.7466,578.508 C1033.4626,565.291 1034.3546,551.949 1034.4056,538.516 C1034.4886,516.199 1034.1986,493.877 1034.6196,471.566 C1035.0546,448.465 1037.1536,425.508 1042.9056,403.002 C1051.1746,370.641 1070.4966,347.678 1100.9556,334.042 C1102.4756,333.362 1103.9676,332.622 1105.9296,331.693 C1098.3506,328.005 1091.3606,324.268 1084.6626,319.989 C1059.8486,304.139 1046.5066,281.013 1040.9566,252.572 C1036.1226,227.804 1034.5436,202.828 1034.3756,177.67 C1034.2146,153.489 1035.2146,129.294 1033.5976,105.126 C1033.1176,97.951 1031.9056,90.903 1030.4716,83.869 C1027.0026,66.852 1015.3866,59.371 999.3356,56.81 C989.4346,55.231 979.4766,54.648 969.4916,55.035 C965.5376,55.188 964.1716,54.358 964.2506,50.019 C964.5396,33.95 964.3416,17.871 964.3296,1.797 C970.5676,0.231 976.9106,1.536 983.1836,1.103 C996.2756,1.113 1009.3686,0.997 1022.3606,3.134 C1032.1636,4.745 1041.4046,7.852 1050.1396,12.6 C1059.5246,17.702 1065.4396,26.267 1071.8086,34.291 C1083.9106,49.541 1089.6746,67.075 1091.2756,86.507 C1093.6086,114.845 1093.4916,143.202 1094.0646,171.575 C1094.5576,196.017 1094.8596,220.533 1098.6016,244.807 C1100.0906,254.466 1102.7636,263.699 1107.8406,272.119 C1118.0016,288.967 1133.6376,297.363 1152.4226,300.791 C1155.0256,301.266 1157.6626,301.612 1160.3006,301.905 C1161.7946,302.07 1163.5206,301.96 1164.1896,303.858 C1164.2226,322.077 1164.1966,340.289 1164.2026,358.495 C1163.3696,361.132 1160.9976,360.597 1159.1316,360.774 C1145.9816,362.018 1133.7916,365.908 1122.9596,373.632 C1110.4916,382.522 1103.6766,395.027 1100.1616,409.576 C1097.3666,421.148 1096.5086,432.998 1095.8246,444.818 C1094.0936,474.709 1094.1336,504.647 1093.6606,534.576 C1093.3766,552.449 1092.2706,570.365 1089.5696,588.145 C1086.5856,607.779 1076.5706,623.586 1064.1836,638.402 C1051.0946,654.059 1033.6996,659.75 1014.1716,661.102 C1011.2726,661.303 1008.2786,660.975 1005.4416,661.959 L997.0096,661.959 C995.4496,661.193 993.8876,661.193 992.3276,661.959 L964.2256,661.959 Z" id="Fill-3" fill="#0AA4FE"></path>
            <path d="M1164.6865,359.3911 C1164.3495,359.3551 1164.0125,359.3201 1163.6765,359.2841 C1163.6765,340.6201 1163.6765,321.9571 1163.6745,303.2941 C1164.0125,303.2581 1164.3495,303.2221 1164.6865,303.1861 L1164.6865,359.3911 Z" id="Fill-5" fill="#75CBFE"></path>
            <path d="M983.8955,0.6211 C983.8955,0.8841 983.9005,1.1471 983.9075,1.4101 C977.3815,1.5381 970.8545,1.6671 964.3295,1.7971 C964.2935,1.4051 964.2595,1.0131 964.2255,0.6211 L983.8955,0.6211 Z" id="Fill-7" fill="#EFF8FE"></path>
            <path d="M199.8364,1.5869 C193.5914,1.5249 187.3464,1.4629 181.1014,1.4019 C181.1074,1.1419 181.1114,0.8809 181.1134,0.6209 L199.8474,0.6209 C199.8434,0.9419 199.8394,1.2649 199.8364,1.5869" id="Fill-9" fill="#EFF8FE"></path>
            <path d="M166.1255,661.959 C168.3115,660.4 170.4965,660.545 172.6825,661.959 L166.1255,661.959 Z" id="Fill-11" fill="#3AB6FE"></path>
            <path d="M992.3271,661.959 C993.8881,660.641 995.4491,660.537 997.0101,661.959 L992.3271,661.959 Z" id="Fill-13" fill="#3CB7FE"></path>
            <path d="M673.0605,76.4976 L700.4145,76.4976 C715.8665,76.4976 731.3185,76.5596 746.7695,76.4436 C749.6915,76.4206 751.0905,76.9316 751.6585,80.2796 C762.7125,145.4146 773.9275,210.5206 785.0955,275.6366 C786.7805,285.4656 788.3875,295.3076 790.0585,305.1386 C790.2345,306.1776 790.5945,307.1846 791.6515,308.2396 C793.2755,298.9146 794.9165,289.5936 796.5185,280.2656 C804.2095,235.4216 811.8975,190.5776 819.5745,145.7316 C823.1765,124.6906 826.8725,103.6656 830.2355,82.5856 C830.9625,78.0246 832.2195,76.2546 837.3565,76.3386 C859.8265,76.7086 882.3035,76.5816 904.7785,76.4186 C908.6775,76.3906 909.3415,77.2376 908.4895,81.1106 C884.8275,188.6686 861.2825,296.2536 837.8255,403.8576 C837.0825,407.2656 835.7745,408.2326 832.3365,408.2126 C804.8695,408.0646 777.3995,408.0196 749.9305,408.2516 C745.8955,408.2856 744.7645,406.9236 743.9805,403.3166 C720.7535,296.2996 697.4185,189.3076 674.1125,82.3086 C673.7215,80.5086 673.4535,78.6816 673.0605,76.4976" id="Fill-15" fill="#0AA4FE"></path>
            <path d="M814.3457,498.1602 C821.4017,491.4612 827.7127,485.4922 833.9997,479.4982 C843.0367,470.8792 852.0817,462.2672 861.0547,453.5842 C862.7097,451.9802 864.3237,451.0532 866.7667,451.1332 C872.7897,451.3222 878.8237,451.1932 885.0587,451.1932 C884.5427,453.2502 883.0837,454.0002 882.0277,455.0142 C865.5807,470.7912 849.1547,486.5902 832.5657,502.2172 C830.1437,504.5002 830.1637,505.6992 832.3627,508.0882 C849.1707,526.3462 865.8347,544.7362 882.5377,563.0942 C883.5597,564.2172 884.5147,565.4002 886.1887,567.3632 C879.3157,567.3632 873.3367,567.3482 867.3567,567.3712 C865.2887,567.3772 864.4667,565.6812 863.3567,564.4652 C848.4037,548.1052 833.4867,531.7112 818.5567,515.3302 C817.4287,514.0922 816.2597,512.8902 814.3457,510.8612 L814.3457,516.2032 C814.3457,531.9692 814.2727,547.7362 814.4087,563.5022 C814.4347,566.4822 813.7147,567.4512 810.5727,567.4592 C798.3937,567.4842 798.3937,567.6072 798.3937,555.5102 C798.3937,522.2602 798.4497,489.0102 798.3137,455.7602 C798.2997,452.1662 799.1127,451.0232 802.8817,451.0942 C814.3427,451.3102 814.3457,451.1352 814.3457,462.8202 L814.3457,498.1602 Z" id="Fill-17" fill="#0AA4FE"></path>
            <path d="M749.4629,544.9277 L749.4629,554.9847 C749.4629,563.0957 749.4629,563.0957 742.1089,566.0367 C712.9039,577.7127 680.6749,569.6247 661.9589,545.3987 C648.2709,527.6797 645.4169,507.6527 653.6739,487.0837 C662.3049,465.5857 679.0459,452.7497 701.8699,448.4667 C716.9959,445.6287 731.6399,448.3647 745.9479,453.5627 C748.5229,454.4997 749.7039,455.6877 749.5309,458.5897 C749.2669,463.0727 749.4629,467.5817 749.4629,472.3767 C743.3759,470.3887 737.7219,468.2417 731.9079,466.6987 C719.0869,463.2907 706.2959,463.0817 693.8669,468.4667 C676.1739,476.1287 665.1299,493.8127 666.5619,511.9627 C668.0929,531.3457 681.5249,547.1327 700.9159,552.2797 C716.1189,556.3147 730.5809,553.8147 744.5619,547.2187 C745.9469,546.5647 747.3389,545.9217 749.4629,544.9277" id="Fill-19" fill="#0AA4FE"></path>
            <path d="M331.8242,571.0898 C313.1332,571.0308 297.2632,559.8868 290.3932,542.1368 C289.5492,539.9548 289.3412,538.5468 292.1492,538.2248 C292.4542,538.1898 292.7502,538.0648 293.0502,537.9788 C296.6412,536.9418 300.3212,534.8498 303.7982,535.1448 C307.7342,535.4808 307.9732,540.6168 310.2092,543.4008 C317.4242,552.3788 327.9412,556.2328 338.4632,553.2908 C350.8072,549.8418 355.6142,536.7848 348.5082,526.1618 C345.2642,521.3148 340.7162,518.1508 335.5592,515.7378 C328.7882,512.5718 321.8462,509.7418 315.2232,506.2968 C306.1892,501.5998 299.2332,494.7008 296.4732,484.6328 C292.2052,469.0608 302.1032,453.2438 319.3112,448.9338 C336.0022,444.7538 350.7262,449.1618 363.1162,461.2208 C365.1682,463.2168 365.9632,464.8628 362.9142,466.5288 C362.6452,466.6758 362.4312,466.9218 362.1862,467.1128 C359.2472,469.4338 356.5752,473.0158 353.2932,473.7088 C350.0242,474.4008 347.8902,469.8088 344.9672,467.8908 C337.7022,463.1248 325.0642,463.0348 317.8392,467.9608 C310.8352,472.7348 310.1582,480.9178 316.3732,486.6778 C320.0832,490.1148 324.6342,492.2308 329.1622,494.3278 C336.2282,497.6038 343.5022,500.4918 350.0152,504.8278 C363.1542,513.5738 370.4242,525.4848 367.9992,541.6388 C365.3582,559.2268 350.3132,571.1508 331.8242,571.0898" id="Fill-21" fill="#0AA4FE"></path>
            <path d="M567.1445,486.293 C565.3915,490.402 563.9625,493.619 562.6325,496.879 C553.3235,519.678 543.9565,542.453 534.8235,565.322 C533.4435,568.775 531.6815,570.361 527.9805,569.959 C524.2085,569.551 518.9395,571.873 517.0425,569.154 C515.4605,566.885 519.0375,562.438 520.4375,559.016 C534.8335,523.814 549.3115,488.647 563.7785,453.475 C564.3545,452.074 565.0445,450.721 566.1565,448.318 C585.3125,488.076 604.0715,527.004 622.9655,566.217 C617.9155,567.186 613.2545,567.025 608.6245,567.314 C606.0685,567.475 605.4985,565.715 604.7015,564.063 C593.3795,540.615 582.0725,517.162 570.7575,493.711 C569.7035,491.525 568.6335,489.346 567.1445,486.293" id="Fill-23" fill="#E8923A"></path>
            <path d="M439.6235,517.2715 C439.6235,501.8335 439.5395,486.3965 439.6935,470.9605 C439.7245,467.8635 438.8045,466.9845 435.7655,467.0785 C428.9105,467.2915 422.0425,467.0445 415.1855,467.1975 C412.5815,467.2555 411.7495,466.5055 411.6745,463.8025 C411.3245,451.1915 411.2345,451.1935 423.6895,451.1935 C442.0895,451.1935 460.4905,451.2815 478.8885,451.1155 C482.2995,451.0825 483.4225,451.8305 483.3845,455.4455 C483.2645,467.1425 483.4245,467.1465 471.8255,467.1465 L462.4705,467.1465 C455.4765,467.1465 455.4755,467.1465 455.4755,473.9105 C455.4755,503.2245 455.3705,532.5415 455.5865,561.8555 C455.6205,566.3205 454.6235,567.6625 450.0225,567.4985 C439.6325,567.1235 439.6235,567.3845 439.6235,557.0355 L439.6235,517.2715 Z" id="Fill-25" fill="#0AA4FE"></path>
            <path d="M400.4468,319.2886 C398.4338,336.4796 390.6638,344.9826 373.4838,347.8036 C367.0308,348.8636 360.4718,349.0126 353.8838,348.6846 C350.3178,348.5066 349.6388,347.2496 349.6498,343.9396 C349.7728,310.0736 349.7258,276.2066 349.7258,242.3396 C349.7258,208.4736 349.7698,174.6056 349.6558,140.7396 C349.6448,137.4296 350.1788,136.0916 353.9208,136.2836 C361.0878,136.6526 368.2778,136.7416 375.3498,138.0236 C391.7538,140.9956 398.6988,148.5996 400.2258,165.3296 C400.7638,171.2256 401.0458,177.1656 401.0648,183.0856 C401.1918,222.8826 401.2178,262.6796 401.2718,302.4766 C401.2788,308.0936 401.1028,313.6866 400.4468,319.2886 M477.1088,145.3986 C472.5768,114.1756 456.0408,93.1406 425.3108,83.8956 C406.4258,78.2146 387.0438,76.6966 367.5098,76.5736 C337.3848,76.3846 307.2578,76.5896 277.1328,76.4026 C272.9708,76.3766 271.7118,77.2996 271.7248,81.6826 C271.8908,135.2226 271.8328,188.7626 271.8328,242.3026 C271.8328,295.9986 271.8588,349.6956 271.7708,403.3926 C271.7648,406.7656 272.2138,408.2246 276.2038,408.2036 C312.1048,408.0176 348.0068,408.1366 383.9078,408.0386 C395.1578,408.0076 406.3518,406.9606 417.3208,404.3336 C444.7768,397.7616 465.2808,383.0616 474.0768,355.0316 C477.7008,343.4856 479.0008,331.5686 478.9978,319.4896 C478.9878,270.7886 478.9778,222.0866 479.0078,173.3856 C479.0158,164.0066 478.4568,154.6776 477.1088,145.3986" id="Fill-27" fill="#0AA4FE"></path>
            <path d="M616.6924,232.7798 C616.3174,234.8308 615.2554,234.7058 613.6714,234.3688 C599.6544,231.3878 585.6344,228.4138 571.5864,225.5858 C569.4274,225.1508 568.6054,224.4768 569.1024,222.2358 C570.7544,214.7838 571.9904,207.2258 573.9534,199.8598 C577.9644,184.8098 591.2924,177.6538 605.7964,182.4118 C615.9714,185.7508 621.3404,194.2008 621.1354,205.8298 C620.7624,215.4728 618.2914,224.0508 616.6924,232.7798 M650.5074,149.4338 C628.2864,137.7668 604.2384,133.0548 578.8784,131.9938 C574.9784,132.2268 570.6114,132.4098 566.2604,132.7608 C534.2204,135.3448 512.2234,154.0098 505.0854,185.3028 C500.1324,207.0178 495.9964,228.9178 491.0904,250.6438 C490.0004,255.4718 491.5074,256.4968 495.7474,257.3628 C531.4604,264.6638 567.1244,272.2038 602.8234,279.5798 C605.2854,280.0888 606.8614,280.3888 606.1544,283.5958 C603.1984,296.9818 600.4984,310.4238 597.5934,323.8198 C596.5954,328.4228 594.7894,332.7198 591.8064,336.4688 C585.9104,343.8818 576.5994,346.0898 565.8594,342.5588 C557.2064,339.7148 553.2194,334.1148 552.7394,324.2498 C552.3484,316.2238 553.8804,308.3888 555.3364,300.5898 C555.9254,297.4368 555.0404,296.5448 552.2314,295.9748 C531.6194,291.7968 511.0124,287.5898 490.4514,283.1758 C487.6124,282.5668 486.9794,283.4348 486.4384,285.8478 C485.1094,291.7838 484.1234,297.7628 483.2644,303.7838 C478.7014,335.7628 491.7374,363.3938 520.0514,378.9538 C546.5694,393.5258 575.2484,399.5218 605.3714,395.6898 C632.7374,392.2088 652.4784,377.9208 662.6184,351.6048 C666.0564,342.6808 667.6614,333.2988 669.5444,323.9918 C676.0604,291.7788 684.3424,259.8808 689.0694,227.3588 C693.9314,193.8918 683.3074,166.6538 650.5074,149.4338" id="Fill-29" fill="#0AA4FE"></path>
        </g>
    </g>
</svg>